<?xml version="1.0" standalone="no"?>
<!DOCTYPE svg PUBLIC "-//W3C//DTD SVG 20010904//EN"
 "http://www.w3.org/TR/2001/REC-SVG-20010904/DTD/svg10.dtd">
<svg version="1.0" xmlns="http://www.w3.org/2000/svg"
 width="674.000000pt" height="211.000000pt" viewBox="0 0 674.000000 211.000000"
 preserveAspectRatio="xMidYMid meet">

<g transform="translate(0.000000,211.000000) scale(0.100000,-0.100000)"
fill="#000000" stroke="none">
<path d="M3295 2022 c-18 -6 -20 -16 -20 -82 l0 -75 -37 -3 -38 -3 0 75 c0 89
2 88 -120 53 l-75 -22 -3 -160 -3 -160 -61 -35 c-128 -74 -273 -241 -328 -380
-91 -229 -88 -460 9 -674 89 -197 275 -365 484 -437 467 -160 973 120 1082
600 13 56 16 106 13 215 -4 127 -8 151 -38 239 -60 177 -198 351 -348 437
l-61 35 -3 160 -3 160 -75 22 c-122 35 -120 36 -120 -53 l0 -75 -37 3 -38 3
-3 76 c-3 70 -5 77 -25 83 -28 7 -126 6 -152 -2z m99 -58 c13 -5 16 -22 16
-80 0 -52 4 -74 13 -74 21 -1 130 -18 160 -25 l27 -7 0 81 c0 45 2 81 4 81 1
0 17 -5 35 -11 l31 -11 0 -120 c0 -110 -1 -120 -17 -113 -10 4 -51 15 -92 26
-135 35 -361 22 -483 -26 -17 -7 -18 3 -18 113 l0 120 31 11 c18 6 34 11 35
11 2 0 4 -36 4 -81 l0 -81 28 7 c29 7 138 24 160 25 8 0 12 22 12 74 0 81 11
97 54 80z m149 -310 c40 -9 82 -22 95 -28 l22 -12 -28 -27 -27 -26 -50 16
c-36 11 -87 16 -180 16 -93 0 -144 -5 -180 -16 l-50 -16 -27 26 c-26 25 -27
28 -11 37 76 43 307 59 436 30z m-448 -169 c-2 -16 -25 -181 -50 -365 -25
-184 -49 -341 -53 -349 -4 -7 -41 -22 -82 -33 -41 -11 -115 -35 -165 -53 -49
-19 -93 -31 -96 -27 -17 18 -39 161 -39 250 0 262 131 500 355 643 l60 38 37
-36 c32 -31 37 -42 33 -68z m763 14 c121 -94 223 -256 263 -418 18 -71 20
-104 16 -205 -5 -142 -28 -232 -55 -220 -51 22 -185 67 -246 83 -39 10 -74 25
-78 32 -4 8 -30 178 -58 379 l-50 364 37 38 36 37 41 -24 c23 -13 65 -43 94
-66z m-320 16 c29 -9 52 -19 52 -23 0 -4 23 -164 50 -357 28 -192 50 -353 50
-357 0 -5 -10 -6 -22 -3 -13 3 -52 9 -88 13 l-65 7 -5 143 -5 144 -37 34 c-33
30 -44 34 -93 34 -49 0 -60 -4 -93 -34 l-37 -34 -5 -144 -5 -143 -65 -7 c-36
-4 -75 -10 -87 -13 -13 -3 -23 -2 -23 2 0 24 100 715 104 722 3 4 31 13 63 19
32 7 67 14 78 16 36 9 179 -3 233 -19z m-109 -451 c19 -24 21 -40 21 -145 l0
-119 -75 0 -75 0 0 119 c0 105 2 121 21 145 15 19 30 26 54 26 24 0 39 -7 54
-26z m91 -338 c0 -2 -28 -17 -62 -34 -35 -17 -90 -51 -123 -75 l-59 -45 -37
31 c-20 18 -65 49 -99 69 l-62 36 49 7 c26 3 55 8 63 9 21 5 330 7 330 2z
m240 -32 c9 -3 -9 -18 -46 -38 -182 -97 -321 -261 -377 -443 -20 -66 -24 -73
-48 -73 -31 0 -180 37 -191 48 -10 10 59 143 116 218 92 124 263 241 417 284
58 16 86 17 129 4z m-724 -44 c36 -16 95 -50 130 -75 l64 -46 -52 -65 -52 -65
-25 33 c-41 55 -146 151 -200 183 -28 17 -51 33 -51 36 0 9 60 27 93 28 15 1
57 -12 93 -29z m828 -62 c-124 -83 -224 -226 -255 -364 -12 -51 -13 -53 -57
-64 -25 -6 -74 -14 -108 -17 l-64 -6 20 58 c66 192 237 370 423 440 47 17 67
20 89 13 27 -10 27 -10 -48 -60z m-1035 -6 c79 -48 161 -120 216 -190 l43 -54
-30 -60 -29 -59 -37 22 c-67 40 -143 102 -189 153 -41 47 -123 173 -123 189 0
7 58 35 76 36 6 1 39 -16 73 -37z m1236 8 c3 -5 -9 -38 -27 -72 -58 -111 -249
-283 -346 -313 -22 -6 -23 -5 -17 17 24 84 79 174 148 242 94 94 221 160 242
126z"/>
<path d="M3257 1456 c-26 -7 -49 -15 -51 -17 -4 -4 -46 -337 -46 -360 0 -8 12
6 26 31 35 62 62 89 109 111 104 48 232 -10 282 -129 8 -19 15 -33 17 -31 5 7
-39 364 -47 376 -19 31 -201 43 -290 19z m233 -45 c23 -6 26 -14 36 -91 6 -47
10 -87 8 -89 -1 -2 -16 6 -31 17 -39 28 -109 45 -152 37 -20 -4 -56 -17 -80
-31 -24 -13 -44 -24 -46 -24 -6 0 23 162 31 169 5 5 18 11 29 14 30 7 177 6
205 -2z"/>
</g>
</svg>
